<?xml version="1.0" encoding="utf-8"?>
<!-- Generator: Adobe Illustrator 24.3.0, SVG Export Plug-In . SVG Version: 6.00 Build 0)  -->
<svg version="1.1" id="Layer_1" xmlns="http://www.w3.org/2000/svg" xmlns:xlink="http://www.w3.org/1999/xlink" x="0px" y="0px"
	 viewBox="0 0 60 75" style="enable-background:new 0 0 60 75;" xml:space="preserve">
<style type="text/css">
	.st0{fill:#565555;}
</style>
<path class="st0" d="M11,16c-1.7,0-3,1.3-3,3s1.3,3,3,3s3-1.3,3-3S12.7,16,11,16z M11,20c-0.6,0-1-0.4-1-1s0.4-1,1-1s1,0.4,1,1
	S11.6,20,11,20z"/>
<path class="st0" d="M11,26c-1.7,0-3,1.3-3,3s1.3,3,3,3s3-1.3,3-3l0,0C14,27.3,12.7,26,11,26z M11,30c-0.6,0-1-0.4-1-1s0.4-1,1-1
	s1,0.4,1,1S11.6,30,11,30z"/>
<path class="st0" d="M11,36c-1.7,0-3,1.3-3,3s1.3,3,3,3s3-1.3,3-3S12.7,36,11,36z M11,40c-0.6,0-1-0.4-1-1s0.4-1,1-1s1,0.4,1,1
	S11.6,40,11,40z"/>
<path class="st0" d="M57,0H45c-1.7,0-3,1.3-3,3v5h-2c-1.7,0-3,1.3-3,3v18h-3V14c0-2.8-2.2-5-5-5h-3.2c-0.4-1.2-1.5-2-2.8-2h-1V6
	c0-1.7-1.3-3-3-3h-4c-1.7,0-3,1.3-3,3v1h-1C9.7,7,8.6,7.8,8.2,9H5c-2.8,0-5,2.2-5,5v32c0,2.8,2.2,5,5,5h25c2.2,0,4-1.8,4-4V31h3v18
	c0,1.7,1.3,3,3,3h2v5c0,1.7,1.3,3,3,3h12c1.7,0,3-1.3,3-3V45c0-1.7-1.3-3-3-3H45c-1.7,0-3,1.3-3,3v5h-2c-0.6,0-1-0.4-1-1V31h3v5
	c0,1.7,1.3,3,3,3h12c1.7,0,3-1.3,3-3V24c0-1.7-1.3-3-3-3H45c-1.7,0-3,1.3-3,3v5h-3V11c0-0.6,0.4-1,1-1h2v5c0,1.7,1.3,3,3,3h12
	c1.7,0,3-1.3,3-3V3C60,1.3,58.7,0,57,0z M6,11h2.2c0.4,1.2,1.5,2,2.8,2h12c1.3,0,2.4-0.8,2.8-2H28v34H6V11z M10.3,9.3
	C10.5,9.1,10.7,9,11,9h6c0.6,0,1-0.4,1-1s-0.4-1-1-1h-3V6c0-0.6,0.4-1,1-1h4c0.6,0,1,0.4,1,1v2c0,0.6,0.4,1,1,1h2c0.6,0,1,0.4,1,1
	c0,0.3-0.1,0.5-0.3,0.7C23.5,10.9,23.3,11,23,11H11c-0.6,0-1-0.4-1-1C10,9.7,10.1,9.5,10.3,9.3z M32,47c0,1.1-0.9,2-2,2H5
	c-1.7,0-3-1.3-3-3V14c0-1.3,0.8-2.4,2-2.8V45c0,1.1,0.9,2,2,2h22c1.1,0,2-0.9,2-2V11.2c1.2,0.4,2,1.5,2,2.8V47z M44,45
	c0-0.6,0.4-1,1-1h12c0.6,0,1,0.4,1,1v12c0,0.6-0.4,1-1,1H45c-0.6,0-1-0.4-1-1V45z M44,24c0-0.6,0.4-1,1-1h12c0.6,0,1,0.4,1,1v12
	c0,0.6-0.4,1-1,1H45c-0.6,0-1-0.4-1-1V24z M58,15c0,0.6-0.4,1-1,1H45c-0.6,0-1-0.4-1-1V3c0-0.6,0.4-1,1-1h12c0.6,0,1,0.4,1,1V15z"/>
<path class="st0" d="M24,16h-7c-0.6,0-1,0.4-1,1s0.4,1,1,1h7c0.6,0,1-0.4,1-1S24.6,16,24,16z"/>
<path class="st0" d="M17,22h5c0.6,0,1-0.4,1-1s-0.4-1-1-1h-5c-0.6,0-1,0.4-1,1S16.4,22,17,22z"/>
<path class="st0" d="M24,26h-7c-0.6,0-1,0.4-1,1s0.4,1,1,1h7c0.6,0,1-0.4,1-1S24.6,26,24,26z"/>
<path class="st0" d="M17,32h5c0.6,0,1-0.4,1-1s-0.4-1-1-1h-5c-0.6,0-1,0.4-1,1S16.4,32,17,32z"/>
<path class="st0" d="M24,36h-7c-0.6,0-1,0.4-1,1s0.4,1,1,1h7c0.6,0,1-0.4,1-1S24.6,36,24,36z"/>
<path class="st0" d="M22,40h-5c-0.6,0-1,0.4-1,1s0.4,1,1,1h5c0.6,0,1-0.4,1-1S22.6,40,22,40z"/>
<path class="st0" d="M53.2,5.4l-3.3,5l-1.1-1.1c-0.4-0.4-1-0.4-1.4,0s-0.4,1,0,1.4l2,2c0.2,0.2,0.4,0.3,0.7,0.3h0.1
	c0.3,0,0.6-0.2,0.7-0.4l4-6c0.3-0.5,0.2-1.1-0.3-1.4C54.1,4.9,53.5,5,53.2,5.4L53.2,5.4z"/>
<path class="st0" d="M49.3,33.7c0.2,0.2,0.4,0.3,0.7,0.3h0.1c0.3,0,0.6-0.2,0.7-0.4l4-6c0.3-0.5,0.2-1.1-0.3-1.4s-1.1-0.2-1.4,0.3
	l-3.3,5l-1.1-1.1c-0.4-0.4-1-0.4-1.4,0s-0.4,1,0,1.4L49.3,33.7z"/>
</svg>
